<?xml version="1.0" encoding="UTF-8" standalone="no"?>
<svg id="svg2" xmlns:rdf="http://www.w3.org/1999/02/22-rdf-syntax-ns#" xmlns="http://www.w3.org/2000/svg" viewBox="0 0 56 40" height="100%" width="100%" version="1.0" xmlns:cc="http://creativecommons.org/ns#" xmlns:dc="http://purl.org/dc/elements/1.1/">
<g id="layer1" transform="translate(-17,42)">
<path id="rect3174" transform="translate(13,-50)" d="m10,8c-3.3137,0-6,2.6822-6,6,0.074392,9.0983,0.0001952,18.727,0,28,0,3.1932,2.4839,5.7776,5.625,5.9688l44.625,0.031c3.199-0.129,5.75-2.765,5.75-6v-29.031c-0.485-2.829-2.941-4.969-5.906-4.969-14.69,0.0067-29.398,0.0001-44.094,0zm-0.09375,3.1562h44.375l-21.469,21.469c-0.39174,0.39174-1.0145,0.39174-1.4062,0l-21.5-21.469zm47.094,1.532v29.093c0,1.7334-0.6245,2.7125-1.875,3.0625l-15.125-15.156,17-17zm-49.656,0.124,16.718,16.719-15.281,15.281c-1.046-0.353-1.4101-1.195-1.4372-2.343v-29.656zm18.844,18.812,5.2188,5.25c0.39174,0.39174,1.0145,0.39174,1.4062,0l5.062-5.062,13.187,13.188h-38.25l13.375-13.375z"/>
</g>
<metadata id="metadata6">
<rdf:RDF>
<cc:Work>
<dc:format>image/svg+xml</dc:format>
<dc:type rdf:resource="http://purl.org/dc/dcmitype/StillImage"/>
<cc:license rdf:resource="http://creativecommons.org/licenses/publicdomain/"/>
<dc:publisher>
<cc:Agent rdf:about="http://openclipart.org/">
<dc:title/>
</cc:Agent>
</dc:publisher>
<dc:title/>
<dc:date/>
<dc:description/>
<dc:source/>
<dc:creator>
<cc:Agent>
<dc:title/>
</cc:Agent>
</dc:creator>
<dc:subject>
<rdf:Bag/>
</dc:subject>
</cc:Work>
<cc:License rdf:about="http://creativecommons.org/licenses/publicdomain/">
<cc:permits rdf:resource="http://creativecommons.org/ns#Reproduction"/>
<cc:permits rdf:resource="http://creativecommons.org/ns#Distribution"/>
<cc:permits rdf:resource="http://creativecommons.org/ns#DerivativeWorks"/>
</cc:License>
</rdf:RDF>
</metadata>
</svg>
