<?xml version="1.0" encoding="UTF-8" standalone="no"?>
<svg id="Layer_1" xmlns:rdf="http://www.w3.org/1999/02/22-rdf-syntax-ns#" style="enable-background:new 0 0 16 16;" xmlns="http://www.w3.org/2000/svg" xml:space="preserve" viewBox="0 0 16 16" version="1.1" xmlns:cc="http://creativecommons.org/ns#" xmlns:dc="http://purl.org/dc/elements/1.1/"><metadata id="metadata9"><rdf:RDF><cc:Work rdf:about=""><dc:format>image/svg+xml</dc:format><dc:type rdf:resource="http://purl.org/dc/dcmitype/StillImage"/><dc:title/></cc:Work></rdf:RDF></metadata><path id="path3" d="M14,8c-0.609,0-0.898,0.43-1,0.883-0.365,1.633-1.916,4.117-5,4.117-0.757,0-1.473-0.172-2.114-0.474l0.528-0.526c0.359-0.344,0.586-0.555,0.586-1,0-0.523-0.438-1-1-1h-3c-0.609,0-1,0.492-1,1v3c0,0.541,0.428,1,1,1,0.484,0,0.688-0.273,1-0.594l0.408-0.407c1.05,0.633,2.277,1.001,3.592,1.001,4.99,0,7-4.75,7-5.938,0-0.726-0.531-1.062-1-1.062zm-11-0.883c0.365-1.632,1.916-4.117,5-4.117,0.757,0,1.473,0.171,2.114,0.473l-0.528,0.527c-0.359,0.344-0.586,0.555-0.586,1,0,0.523,0.438,1,1,1h3c0.609,0,1-0.492,1-1v-3c0-0.541-0.428-1-1-1-0.484,0-0.688,0.273-1,0.594l-0.408,0.407c-1.05-0.633-2.277-1.001-3.592-1.001-4.99,0-7,4.75-7,5.938,0,0.726,0.531,1.062,1,1.062,0.609,0,0.898-0.43,1-0.883z"/></svg>
