<?xml version="1.0" standalone="no"?>
<!DOCTYPE svg PUBLIC "-//W3C//DTD SVG 1.1//EN" "http://www.w3.org/Graphics/SVG/1.1/DTD/svg11.dtd" >
<svg xmlns="http://www.w3.org/2000/svg">
<metadata></metadata>
<defs>
<font id="corbertregular" horiz-adv-x="1497" >
<font-face units-per-em="2048" ascent="1638" descent="-410" />
<missing-glyph horiz-adv-x="604" />
<glyph unicode="&#xfb01;" horiz-adv-x="1294" d="M69 933v91h188q0 264 162 394q145 120 380 114v-90q-194 0 -307 -101q-61 -53 -89 -129t-28 -188h740v-1024h-117v933h-623v-933h-118v933h-188z" />
<glyph unicode="&#xfb02;" horiz-adv-x="1499" d="M69 933v91h188q0 264 162 394q144 120 374 115h316v-1103q0 -350 314 -350v-90q-214 -6 -322.5 108t-108.5 332v1012h-192q-195 0 -308 -101q-61 -53 -89 -129t-28 -188h338v-91h-338v-933h-118v933h-188z" />
<glyph horiz-adv-x="2048" />
<glyph horiz-adv-x="2048" />
<glyph unicode="&#xd;" horiz-adv-x="2048" />
<glyph unicode=" "  horiz-adv-x="604" />
<glyph unicode="&#x09;" horiz-adv-x="604" />
<glyph unicode="&#xa0;" horiz-adv-x="604" />
<glyph unicode="!" horiz-adv-x="327" d="M92 57q0 28 21.5 47.5t50.5 19.5t50 -19.5t21 -47.5t-21 -47.5t-50 -19.5t-50.5 19.5t-21.5 47.5zM103 313v1120h122v-1120h-122z" />
<glyph unicode="&#x22;" horiz-adv-x="602" d="M92 921v525h101v-525h-101zM409 921v525h101v-525h-101z" />
<glyph unicode="#" horiz-adv-x="1302" d="M92 389l20 92h178l100 472h-177l19 92h178l82 389h108l-82 -389h389l83 389h108l-83 -389h195l-19 -92h-195l-101 -472h195l-19 -92h-195l-83 -389h-108l83 389h-390l-83 -389h-107l82 389h-178zM398 481h390l100 472h-390z" />
<glyph unicode="$" horiz-adv-x="1368" d="M92 172l74 83q80 -82 225 -129t302 -47q71 0 136 10.5t123.5 33.5t101.5 56.5t68.5 83t25.5 109.5q0 65 -26 113t-54.5 75.5t-102.5 52t-113.5 33t-144.5 27.5q-46 9 -70 13q-62 12 -106.5 22t-98.5 26.5t-91.5 35.5t-76 47t-61 61.5t-37 80t-14.5 101.5q0 86 38.5 156.5 t105 118t151.5 77t183 39.5v197h113v-192h37q257 -7 435 -115l-71 -88q-172 106 -415 106q-122 0 -222 -31t-165.5 -99t-65.5 -163q0 -48 14.5 -86t45 -65.5t62.5 -47t84 -35t90.5 -24.5t99.5 -21q223 -42 290 -62q194 -55 264 -162q51 -77 51 -191q0 -93 -44.5 -167 t-121 -120.5t-170 -73t-198.5 -31.5v-195h-113v192q-162 9 -308.5 60.5t-229.5 134.5z" />
<glyph unicode="%" horiz-adv-x="1779" d="M92 1052q0 88 14 154.5t48.5 123t101 86.5t163.5 30t163 -30t100.5 -86.5t48.5 -123t14 -154.5q0 -89 -14.5 -156t-49.5 -123.5t-101 -86.5t-161 -30t-161.5 30t-101.5 86.5t-49.5 123.5t-14.5 156zM188 1052q0 -161 50.5 -239.5t180.5 -78.5t180 78t50 240 q0 161 -49 238.5t-181 77.5t-181.5 -77.5t-49.5 -238.5zM354 -35l947 1503h121l-947 -1503h-121zM1035 383q0 88 14 154.5t48.5 123t100.5 86.5t163 30q78 0 136.5 -20.5t94.5 -55t58 -86t30 -107t8 -125.5t-8.5 -126.5t-31 -108t-58.5 -85.5t-94 -54.5t-135 -20.5 q-95 0 -161 29.5t-101 86t-49.5 123.5t-14.5 156zM1131 383q0 -162 50 -240t180 -78t180.5 78.5t50.5 239.5t-49.5 239t-181.5 78t-181 -78t-49 -239z" />
<glyph unicode="&#x26;" horiz-adv-x="1423" d="M92 370q0 248 204 350l161 68l-143 151q-69 78 -69 206q0 73 21 128t57.5 89.5t91 56t114 30t134.5 8.5q74 0 133 -8t113.5 -29.5t91 -56t58 -89.5t21.5 -129q0 -193 -151 -267l-290 -123l500 -524q46 66 46 173q0 135 -77 207l64 47q111 -103 111 -288q0 -138 -63 -228 l101 -107l10 -35h-129l-66 70q-129 -115 -444 -115q-105 0 -190 11t-163.5 39.5t-131 74.5t-84 119.5t-31.5 170.5zM210 372q0 -75 22.5 -131t62 -91.5t100 -57.5t128.5 -30.5t156 -8.5q281 0 379 101l-528 555l-166 -70q-154 -73 -154 -267zM366 1142q0 -99 44 -144 l158 -165l295 125q97 48 97 184q0 124 -74.5 170.5t-222.5 46.5t-222.5 -47t-74.5 -170z" />
<glyph unicode="'" horiz-adv-x="284" d="M92 921v525h101v-525h-101z" />
<glyph unicode="(" horiz-adv-x="667" d="M92 559q0 109 5.5 200.5t20 183t38 163.5t60.5 137t86.5 110t117.5 75.5t151 40.5l4 -97q-107 -18 -181 -83.5t-114.5 -177t-57.5 -244t-17 -308.5q0 -177 17 -310t57.5 -243.5t114.5 -176t181 -83.5l-4 -96q-97 12 -173 49.5t-127.5 100t-87 140t-55.5 180t-28 207 t-8 232.5z" />
<glyph unicode=")" horiz-adv-x="667" d="M92 -254q108 18 182 84.5t114.5 178.5t57 244t16.5 308t-17 309t-58 243.5t-114.5 175.5t-180.5 83l4 97q83 -10 151 -40.5t117.5 -75.5t86.5 -110t60.5 -137t38 -163.5t20 -183t5.5 -200.5q0 -128 -8 -232.5t-28 -207t-55.5 -180t-87 -140t-127.5 -100t-173 -49.5z" />
<glyph unicode="*" horiz-adv-x="663" d="M92 1264l27 81l173 -59l-2 183h85l-3 -183l174 59l26 -81l-175 -54l110 -147l-69 -49l-106 149l-106 -149l-68 49l110 147z" />
<glyph unicode="+" horiz-adv-x="1009" d="M92 550v98h364v364h98v-364h363v-98h-363v-364h-98v364h-364z" />
<glyph unicode="," horiz-adv-x="331" d="M92 49q0 26 18.5 44t49.5 18q79 0 79 -121q0 -63 -21.5 -97t-78.5 -34h-20l8 53h8q26 0 34.5 13.5t9.5 51.5v13q-6 -2 -19 -2q-31 0 -49.5 17.5t-18.5 43.5z" />
<glyph unicode="-" horiz-adv-x="944" d="M92 660v99h759v-99h-759z" />
<glyph unicode="." horiz-adv-x="319" d="M92 53q0 26 18.5 44t49.5 18t49 -18t18 -44t-18 -44.5t-49 -18.5t-49.5 18.5t-18.5 44.5z" />
<glyph unicode="/" horiz-adv-x="952" d="M87 -35l658 1503h119l-657 -1503h-120z" />
<glyph unicode="0" horiz-adv-x="1417" d="M123 691q0 129 14.5 229.5t53.5 194.5t103.5 156t169 98.5t244.5 36.5t245 -36.5t169 -98.5t103.5 -155.5t54 -194.5t14.5 -230t-15.5 -231.5t-55.5 -196t-104.5 -155.5t-168.5 -98.5t-242 -36.5t-241.5 36.5t-168.5 98.5t-105 155.5t-55 196t-15 231.5zM245 691 q0 -120 12.5 -211.5t44.5 -170.5t83.5 -129.5t132.5 -79t190 -28.5q135 0 227.5 42t143.5 126t72 192t21 259t-20 257t-70.5 191t-143 127t-230.5 42q-111 0 -192.5 -28.5t-133 -79t-82.5 -130t-43 -169.5t-12 -210z" />
<glyph unicode="1" horiz-adv-x="669" d="M72 1220v102l313 71h90v-1393h-122v1283z" />
<glyph unicode="2" horiz-adv-x="1273" d="M108 0v313q0 113 39.5 194t117 129.5t176.5 73.5t234 32q102 6 168.5 20.5t118 46.5t74.5 87t23 138q0 66 -19.5 114.5t-54 79.5t-88 50t-115 26t-141.5 7q-101 0 -174 -12.5t-130 -42.5t-86 -85t-29 -135h-114q0 109 37.5 183t111.5 114.5t166 57.5t219 17 q100 0 176.5 -9.5t145.5 -34.5t113.5 -66.5t70.5 -107t26 -154.5q0 -111 -31 -185t-97.5 -116t-150 -61t-210.5 -26q-117 -7 -198 -25.5t-142.5 -56.5t-90.5 -100t-29 -152v-212h943v-102h-1060z" />
<glyph unicode="3" horiz-adv-x="1290" d="M90 362h115q2 -85 32.5 -143.5t89.5 -90t133.5 -44.5t177.5 -13q104 0 178.5 13t134 45.5t89 92.5t29.5 149q0 72 -20.5 124.5t-55.5 86t-91 53.5t-118.5 27.5t-145.5 7.5h-216v95h216q96 0 163.5 11.5t121.5 41t81 83.5t27 135t-27 135t-81 83.5t-122 41.5t-163 12 q-193 0 -291.5 -57t-102.5 -206h-117q3 105 41 177t109.5 111.5t158 56t202.5 16.5q92 0 165 -9t140.5 -33.5t112 -64t71 -103.5t26.5 -149q0 -143 -68.5 -221t-197.5 -108q147 -30 225 -114.5t78 -243.5q0 -92 -28 -160.5t-76 -111t-120 -69t-150.5 -36.5t-177.5 -10 t-177 10.5t-148.5 37.5t-117.5 70t-75.5 111.5t-29.5 159.5z" />
<glyph unicode="4" horiz-adv-x="1314" d="M87 320v105l839 970h120v-977h176v-98h-176v-320h-120v320h-839zM220 418h705v819z" />
<glyph unicode="5" horiz-adv-x="1265" d="M100 395h126q3 -76 23.5 -132.5t55 -93t87 -58.5t112.5 -31t137 -9q100 0 171 15t128 52t85.5 106.5t28.5 171.5q0 104 -28 174.5t-85 108t-128 52.5t-172 15h-483v627h933v-98h-811v-430h357q97 0 174 -11.5t147.5 -42t116.5 -79.5t73.5 -128t27.5 -185t-27.5 -185 t-73.5 -128t-116.5 -79.5t-147.5 -42t-174 -11.5q-120 0 -211 19.5t-166 65.5t-116 130.5t-44 206.5z" />
<glyph unicode="6" horiz-adv-x="1335" d="M123 691q0 93 5.5 166.5t20.5 150t40.5 133.5t68 109t100 85t138.5 52t182 19q418 0 533 -327l-116 -29q-45 129 -143 193.5t-274 64.5q-107 0 -184 -27t-124 -72.5t-74.5 -120.5t-37.5 -156t-11 -194v-70q48 114 163.5 160t296.5 46q92 0 167 -12.5t143 -43.5 t113.5 -81.5t72.5 -130t27 -184.5q0 -106 -28 -186t-75.5 -129.5t-119.5 -80t-150.5 -42t-178.5 -11.5t-180 19t-137.5 52t-100 84.5t-68.5 109.5t-41.5 134t-21.5 151t-6 168zM250 502q9 -104 34 -179t73 -133.5t128.5 -88t194.5 -29.5q83 0 146 9t119 33t91.5 63.5t56 102 t20.5 147.5t-20.5 147.5t-56 102t-91.5 63.5t-119 33t-146 9q-194 0 -301.5 -61.5t-128.5 -218.5z" />
<glyph unicode="7" horiz-adv-x="1216" d="M92 1296v99h1031v-70l-762 -1325h-135l752 1296h-886z" />
<glyph unicode="8" horiz-adv-x="1402" d="M123 364q0 157 81 241.5t234 116.5q-134 31 -205 108.5t-71 216.5q0 84 27 147.5t74 103t117 64.5t147.5 34.5t174.5 9.5t173 -9t146.5 -33.5t117 -64t74 -103.5t27.5 -149q0 -141 -70 -218t-202 -107q151 -31 231 -115.5t80 -242.5q0 -93 -29.5 -162.5t-79 -112.5 t-125 -69.5t-157.5 -36.5t-186 -10t-187.5 10.5t-158.5 37.5t-125 70.5t-79 112.5t-29 160zM253 369q0 -87 30.5 -146t92 -91.5t139.5 -46t187 -13.5q108 0 185.5 13t139 45t92.5 91.5t31 147.5q0 71 -21 123.5t-58 85.5t-94.5 53.5t-123 28t-151.5 7.5t-152.5 -8 t-123.5 -28.5t-94 -54t-58 -85.5t-21 -122zM291 1036q0 -79 28 -133t84.5 -83.5t127.5 -42t171 -12.5q99 0 169.5 11.5t126.5 41t84 83.5t28 135t-28 135t-84 83.5t-126.5 41.5t-169.5 12t-171 -12.5t-128 -42.5t-84 -84t-28 -133z" />
<glyph unicode="9" horiz-adv-x="1335" d="M105 957q0 106 28 186t75.5 129.5t119.5 80t150.5 42t178.5 11.5t180 -19t137.5 -52t100 -84.5t68.5 -109.5t41.5 -134t21.5 -151t6 -168t-5.5 -166.5t-20.5 -150t-40.5 -133.5t-68 -109t-100 -85t-138.5 -52t-182 -19q-418 0 -533 328l116 28q45 -129 143 -193t274 -64 q77 0 138 13.5t106 38t77.5 63.5t53 83.5t33 105.5t17.5 123t6 141v72q-49 -113 -164.5 -159.5t-290.5 -46.5q-94 0 -169 12t-144 43t-115 81t-73 130t-27 185zM223 953q0 -106 29.5 -177t89.5 -109.5t134 -54t179 -15.5q194 0 301.5 61.5t128.5 218.5q-9 104 -34 179 t-73 134t-128.5 88.5t-194.5 29.5q-83 0 -146 -9t-118.5 -33t-91 -63.5t-56 -102t-20.5 -147.5z" />
<glyph unicode=":" horiz-adv-x="319" d="M92 927q0 26 18.5 43.5t49.5 17.5t49 -17.5t18 -43.5t-18 -44t-49 -18t-49.5 18t-18.5 44zM93 53q0 26 18 44t49 18t49.5 -18t18.5 -44t-18.5 -44.5t-49.5 -18.5t-49 18.5t-18 44.5z" />
<glyph unicode=";" horiz-adv-x="331" d="M92 927q0 26 18.5 43.5t49.5 17.5t49 -17.5t18 -43.5t-18 -44t-49 -18t-49.5 18t-18.5 44zM93 51q0 26 18 44t49 18q80 0 80 -123q0 -62 -22 -95.5t-79 -33.5h-19l7 53h9q25 0 33.5 14t9.5 52v12q-6 -2 -19 -2q-31 0 -49 17.5t-18 43.5z" />
<glyph unicode="&#x3c;" horiz-adv-x="966" d="M92 479v126l782 470v-115l-666 -418l666 -417v-116z" />
<glyph unicode="=" horiz-adv-x="1009" d="M92 341v98h825v-98h-825zM92 738v98h825v-98h-825z" />
<glyph unicode="&#x3e;" horiz-adv-x="966" d="M92 9v116l666 417l-666 418v115l782 -470v-126z" />
<glyph unicode="?" horiz-adv-x="1255" d="M92 1092q0 106 39 179.5t114 113.5t166.5 56.5t213.5 16.5q97 0 173 -9.5t146.5 -34.5t117 -65.5t74 -106t27.5 -153.5q0 -66 -11.5 -120.5t-28.5 -92.5t-47 -68.5t-55.5 -48.5t-66 -33.5t-67.5 -23t-69 -16.5q-35 -8 -52 -12.5t-46.5 -14t-44.5 -18.5t-35 -25.5 t-29 -35.5t-16.5 -47t-7.5 -62v-158h-122v198q0 60 18 105t39.5 70.5t69.5 46.5t75.5 28.5t90.5 21.5q5 1 8 2q33 7 52 12t48.5 15t47.5 20.5t40.5 27t36 38t26.5 49t18.5 64.5t5.5 81q0 64 -19.5 111t-53.5 77t-87 48t-113 25t-140 7t-141 -7.5t-114 -25.5t-87 -48.5 t-53 -77t-19 -109.5h-122zM454 57q0 28 21 47.5t50 19.5t50.5 -19.5t21.5 -47.5t-21.5 -47.5t-50.5 -19.5t-50 19.5t-21 47.5z" />
<glyph unicode="@" horiz-adv-x="2023" d="M92 500q0 207 62.5 383t178 303.5t289.5 199.5t388 72q210 0 384 -69.5t291 -193t181 -295t64 -372.5q0 -212 -123.5 -340.5t-320.5 -128.5h-250l-4 122q-72 -83 -144 -112.5t-155 -29.5q-181 0 -284 114t-103 317q0 187 123 305.5t316 118.5q139 0 241 -66v55h98v-714 h169q147 2 236.5 98t89.5 261q0 241 -96.5 426.5t-281 290.5t-431.5 105q-189 0 -342 -63t-254.5 -175.5t-156 -268.5t-54.5 -343q0 -188 55.5 -345.5t158.5 -269.5t255 -174.5t338 -62.5q131 0 252 28l27 -105q-143 -34 -278 -34q-210 0 -383.5 72t-290.5 199.5t-181 305 t-64 386.5zM643 470q0 -164 81 -257.5t233 -93.5q76 0 138.5 29t130.5 119v476q-86 71 -221 71q-163 0 -262.5 -96.5t-99.5 -247.5z" />
<glyph unicode="A" d="M87 0l597 1434h129l597 -1434h-128l-163 396h-741l-163 -396h-128zM416 498h665l-332 805z" />
<glyph unicode="B" horiz-adv-x="1413" d="M200 0v1434h642q177 0 278.5 -99.5t101.5 -262.5q0 -117 -51.5 -201.5t-147.5 -122.5q123 -33 191 -128.5t68 -232.5q0 -176 -106.5 -281.5t-295.5 -105.5h-680zM322 100h539q138 0 214.5 78.5t76.5 215.5q0 135 -77 214.5t-214 79.5h-539v-588zM322 789h529 q120 6 185 78.5t65 194.5q0 126 -72 199.5t-199 73.5h-508v-546z" />
<glyph unicode="C" horiz-adv-x="1402" d="M144 718q0 159 48.5 294.5t138.5 234.5t227 155t305 56q243 0 416 -119l-77 -83q-139 99 -339 99q-186 0 -322.5 -81t-206 -224t-69.5 -332t69.5 -332t206 -224t322.5 -81q200 0 339 99l77 -84q-173 -119 -416 -119q-168 0 -305 56t-227 155.5t-138.5 235t-48.5 294.5z " />
<glyph unicode="D" horiz-adv-x="1521" d="M200 0v1434h456q224 0 388.5 -90.5t249 -251.5t84.5 -374q0 -215 -83.5 -376.5t-248 -251.5t-390.5 -90h-456zM322 103h334q286 0 443 163.5t157 451.5q0 284 -158.5 448.5t-441.5 164.5h-334v-1228z" />
<glyph unicode="E" horiz-adv-x="1210" d="M200 0v1434h895v-103h-773v-541h709v-102h-709v-586h773v-102h-895z" />
<glyph unicode="F" horiz-adv-x="1175" d="M200 0v1434h860v-103h-738v-564h674v-102h-674v-665h-122z" />
<glyph unicode="G" horiz-adv-x="1617" d="M144 718q0 159 48.5 294.5t138.5 234.5t227 155t305 56q171 0 308 -56.5t231 -160.5l-75 -70q-179 184 -463 184q-276 0 -437.5 -174t-161.5 -463t161 -464.5t437 -175.5q292 0 453 188v404h-453v98h572v-538q-94 -122 -239 -188.5t-333 -66.5q-220 0 -384.5 96.5 t-249.5 264t-85 382.5z" />
<glyph unicode="H" horiz-adv-x="1533" d="M200 0v1434h122v-666h891v666h121v-1434h-121v666h-891v-666h-122z" />
<glyph unicode="I" horiz-adv-x="522" d="M200 0v1434h122v-1434h-122z" />
<glyph unicode="J" horiz-adv-x="1028" d="M87 20l23 87q80 -20 194 -20q115 0 194 30t124 92t64.5 145.5t19.5 200.5v879h122v-879q0 -104 -15.5 -187.5t-52.5 -155.5t-96 -120.5t-150 -76t-210 -27.5q-121 0 -217 32z" />
<glyph unicode="K" horiz-adv-x="1320" d="M200 0v1434h120v-863l710 863h151l-530 -641l583 -793h-152l-508 699l-254 -305v-394h-120z" />
<glyph unicode="L" horiz-adv-x="1155" d="M200 0v1434h122v-1336h746v-98h-868z" />
<glyph unicode="M" horiz-adv-x="1808" d="M182 0v1434h151l562 -1295l562 1295h151v-1434h-122v1198l-532 -1198h-118l-532 1198v-1198h-122z" />
<glyph unicode="N" horiz-adv-x="1490" d="M182 0v1434h147l858 -1231v1231h122v-1434h-148l-857 1230v-1230h-122z" />
<glyph unicode="O" horiz-adv-x="1728" d="M144 718q0 159 48.5 294.5t138.5 234.5t227 155t305 56t305 -56t228 -155t140 -234.5t49 -294.5q0 -161 -48.5 -297t-139 -235.5t-227.5 -155t-307 -55.5q-220 0 -384.5 96.5t-249.5 264t-85 382.5zM265 718q0 -289 161 -464t437 -175q282 0 441 174t159 465 q0 287 -160 462t-440 175q-186 0 -322.5 -81t-206 -224t-69.5 -332z" />
<glyph unicode="P" horiz-adv-x="1409" d="M200 0v1434h591q224 0 351.5 -129.5t127.5 -342.5q0 -215 -126.5 -344t-352.5 -129h-469v-489h-122zM322 590h457q175 0 272 99.5t97 272.5q0 171 -97.5 271t-271.5 100h-457v-743z" />
<glyph unicode="Q" horiz-adv-x="1736" d="M144 718q0 159 48.5 294.5t138.5 234.5t227 155t305 56t305 -56t228 -155t140 -234.5t49 -294.5q0 -299 -156 -493l177 -177l-78 -79l-179 179q-187 -173 -486 -173q-220 0 -384.5 96.5t-249.5 264t-85 382.5zM265 718q0 -289 161 -464t437 -175q282 0 441 174t159 465 q0 287 -160 462t-440 175q-186 0 -322.5 -81t-206 -224t-69.5 -332z" />
<glyph unicode="R" horiz-adv-x="1429" d="M200 0v1434h590q212 0 333 -122.5t121 -324.5q0 -178 -93.5 -294.5t-262.5 -141.5l408 -551h-145l-389 538h-440v-538h-122zM322 639h456q164 0 254.5 93t90.5 254q0 159 -91.5 253t-253.5 94h-456v-694z" />
<glyph unicode="S" horiz-adv-x="1400" d="M100 172l74 83q80 -82 225 -129t302 -47q71 0 136 10.5t123.5 33.5t101.5 56.5t68.5 83t25.5 109.5q0 65 -26 113t-54.5 75.5t-102.5 52t-113.5 33t-144.5 27.5q-46 9 -70 13q-62 12 -106.5 22t-98.5 26.5t-91.5 35.5t-76 47t-61 61.5t-37 80t-14.5 101.5q0 99 49.5 177 t133.5 125.5t188 72t219 24.5q129 0 253.5 -30.5t219.5 -87.5l-71 -88q-172 106 -416 106q-122 0 -222 -31t-165 -99t-65 -163q0 -48 14.5 -86t45 -65.5t62.5 -47t84 -35t90.5 -24.5t99.5 -21q223 -42 290 -62q193 -55 264 -162q50 -77 50 -191q0 -80 -33 -146.5t-89 -112 t-131.5 -77.5t-159.5 -46.5t-174 -14.5q-175 0 -340 52.5t-257 144.5z" />
<glyph unicode="T" horiz-adv-x="1363" d="M87 1331v103h1189v-103h-533v-1331h-122v1331h-534z" />
<glyph unicode="U" horiz-adv-x="1525" d="M200 651v783h122v-774q0 -144 22.5 -247.5t73.5 -179t139 -112.5t215 -37q128 0 216 38t139 114.5t73 179t22 244.5v774h122v-783q0 -125 -16.5 -224.5t-57.5 -186t-105.5 -144.5t-163.5 -90.5t-229 -32.5q-129 0 -227.5 32t-163.5 89t-106 142.5t-58 186.5t-17 228z" />
<glyph unicode="V" horiz-adv-x="1466" d="M87 1434h128l519 -1295l519 1295h127l-585 -1434h-122z" />
<glyph unicode="W" horiz-adv-x="2234" d="M87 1434h134l421 -1252l408 1252h133l408 -1252l421 1252h134l-496 -1434h-125l-408 1237l-408 -1237h-126z" />
<glyph unicode="X" horiz-adv-x="1390" d="M87 0l528 737l-494 697h141l435 -617l432 617h140l-494 -702l528 -732h-140l-470 653l-465 -653h-141z" />
<glyph unicode="Y" horiz-adv-x="1413" d="M87 1434h141l479 -750l478 750h141l-558 -863v-571h-122v572z" />
<glyph unicode="Z" horiz-adv-x="1310" d="M100 0v71l931 1260h-859v103h1023v-71l-930 -1261h946v-102h-1111z" />
<glyph unicode="[" horiz-adv-x="587" d="M92 -334v1802h403v-91h-290v-1621h290v-90h-403z" />
<glyph unicode="\" horiz-adv-x="952" d="M87 1468h120l657 -1503h-119z" />
<glyph unicode="]" horiz-adv-x="587" d="M92 -244h290v1621h-290v91h403v-1802h-403v90z" />
<glyph unicode="^" horiz-adv-x="1155" d="M92 789l424 638h123l423 -638h-136l-349 536l-349 -536h-136z" />
<glyph unicode="_" horiz-adv-x="1128" d="M92 -215h944v-98h-944v98z" />
<glyph unicode="`" horiz-adv-x="571" d="M92 1418l62 73l326 -273l-62 -74z" />
<glyph unicode="a" horiz-adv-x="1187" d="M110 310q0 86 36.5 152.5t99 106t139.5 59.5t165 20q205 0 363 -90v116q0 92 -54 160t-133 99.5t-170 31.5q-169 0 -329 -90l-32 74q183 102 381 102q86 0 166 -24t145 -70t104 -120t39 -166v-671h-105l-4 154q-156 -179 -410 -179q-107 0 -196 36.5t-147 114.5t-58 184z M221 316q0 -119 91.5 -185.5t225.5 -66.5q236 0 375 173v241q-68 44 -159 68.5t-185 24.5q-96 0 -172 -25.5t-126 -84.5t-50 -145z" />
<glyph unicode="b" horiz-adv-x="1265" d="M174 0v1511h118v-636q124 104 208 140t182 36q228 0 345.5 -141.5t117.5 -395.5q0 -248 -128.5 -393.5t-355.5 -145.5q-238 0 -377 177l-4 -152h-106zM292 256q120 -186 339 -186q193 0 295 121t102 323q0 442 -372 442q-91 0 -166.5 -37t-197.5 -149v-514z" />
<glyph unicode="c" horiz-adv-x="1058" d="M121 512q0 113 36 211t103 171t169.5 115t227.5 42q91 0 168 -20.5t123 -54.5l-65 -76q-74 56 -219 56q-196 0 -311 -124t-115 -320q0 -200 117 -322t309 -122q59 0 122.5 16t106.5 45l64 -76q-57 -38 -139 -59t-161 -21q-245 0 -390.5 151.5t-145.5 387.5z" />
<glyph unicode="d" horiz-adv-x="1265" d="M121 514q0 254 117.5 395.5t345.5 141.5q97 0 181.5 -36t208.5 -141v637h118v-1511h-106l-4 152q-139 -177 -377 -177q-227 0 -355.5 145.5t-128.5 393.5zM238 514q0 -202 102 -323t295 -121q219 0 339 186v514q-122 112 -197.5 149t-166.5 37q-372 0 -372 -442z" />
<glyph unicode="e" horiz-adv-x="1230" d="M121 515q0 154 58 274t177 192t283 72q235 0 362.5 -120t127.5 -350q0 -71 -12 -134h-879q17 -175 126 -278t287 -104q187 -3 340 81l50 -63q-164 -110 -390 -110q-247 0 -388.5 150t-141.5 390zM238 522h775q6 44 6 82q0 358 -378 358q-189 0 -294.5 -115.5 t-108.5 -301.5v-23z" />
<glyph unicode="f" horiz-adv-x="798" d="M69 933v91h188q0 264 162 394q145 120 380 114v-90q-194 0 -307 -101q-61 -53 -89 -129t-28 -188h338v-91h-338v-933h-118v933h-188z" />
<glyph unicode="g" horiz-adv-x="1230" d="M100 -209q0 206 210 272q-71 12 -113 52.5t-42 89.5q0 48 35 96t100 82q-143 99 -143 298q0 180 122.5 279.5t320.5 99.5q116 0 208 -36h320v-74l-229 -6q68 -40 106 -107.5t38 -155.5q0 -183 -119.5 -280.5t-323.5 -97.5q-124 0 -213 42q-58 -24 -87 -59.5t-29 -72.5 q0 -46 43.5 -77.5t120.5 -32.5h189q67 1 121.5 -3t117 -14.5t109 -33t86 -56t60.5 -86t21 -119.5t-29.5 -121t-78 -89t-115 -59t-137 -34t-146.5 -10q-78 0 -150 9.5t-141 33t-119.5 58.5t-81.5 89.5t-31 122.5zM216 -209q0 -74 55 -126t140.5 -74.5t192.5 -22.5 q113 0 201.5 21.5t146.5 73t58 128.5q0 59 -22.5 100.5t-57.5 65t-92.5 36.5t-112.5 17t-133 4q-87 0 -149 -9t-116.5 -32t-82.5 -68.5t-28 -113.5zM255 681q0 -139 89 -212.5t246 -73.5q156 0 245 74.5t89 211.5t-90.5 211.5t-243.5 74.5t-244 -74.5t-91 -211.5z" />
<glyph unicode="h" horiz-adv-x="1282" d="M192 0v1511h118v-642q112 98 196 140.5t192 42.5q79 0 153.5 -24t136.5 -69.5t99.5 -120t37.5 -166.5v-672h-118v651q0 74 -29 133.5t-78 96t-108.5 56t-123.5 19.5q-95 0 -171 -41t-187 -146v-769h-118z" />
<glyph unicode="i" horiz-adv-x="493" d="M186 1332q0 28 21 47.5t50 19.5t50.5 -19.5t21.5 -47.5t-21.5 -47.5t-50.5 -19.5t-50 19.5t-21 47.5zM198 0v1024h118v-1024h-118z" />
<glyph unicode="j" horiz-adv-x="503" d="M-150 -434q164 18 260.5 119.5t96.5 275.5v1063h117v-1063q0 -231 -147 -352q-125 -121 -327 -133v90zM194 1332q0 28 21 47.5t50 19.5t50.5 -19.5t21.5 -47.5t-21.5 -47.5t-50.5 -19.5t-50 19.5t-21 47.5z" />
<glyph unicode="k" horiz-adv-x="1116" d="M192 0v1510h118v-1023l539 537h137l-399 -406l455 -618h-140l-388 535l-204 -200v-335h-118z" />
<glyph unicode="l" horiz-adv-x="700" d="M192 430v1081h118v-1081q0 -350 313 -350v-90q-213 -6 -322 108.5t-109 331.5z" />
<glyph unicode="m" horiz-adv-x="1937" d="M174 0v1024h106l4 -155q103 97 180 140t177 43q105 0 199.5 -48t145.5 -137q114 105 199.5 145t194.5 40q59 0 116 -14.5t108.5 -46t91 -75.5t62.5 -107t23 -137v-672h-117v651q0 74 -26.5 133.5t-71 96t-99 56t-112.5 19.5q-91 0 -163 -34t-177 -136q22 -58 22 -125 v-661h-117v651q0 74 -26.5 133.5t-71 96t-99 56t-112.5 19.5q-85 0 -152 -39.5t-167 -139.5v-777h-118z" />
<glyph unicode="n" horiz-adv-x="1271" d="M174 0v1024h106l4 -157q114 99 199.5 142t196.5 43q64 0 125.5 -14.5t118 -46t99 -75.5t67.5 -107t25 -137v-672h-118v651q0 97 -51.5 168.5t-128 104t-164.5 32.5q-95 0 -171.5 -40t-189.5 -142v-774h-118z" />
<glyph unicode="o" horiz-adv-x="1312" d="M121 512q0 115 36 213.5t102.5 171t169 113.5t228.5 41q250 0 392.5 -148.5t142.5 -390.5q0 -158 -60.5 -278.5t-183 -190.5t-291.5 -70q-126 0 -228.5 41t-169 113.5t-102.5 171t-36 213.5zM238 512q0 -200 112.5 -322t306.5 -122q197 0 307.5 120t110.5 324 q0 205 -112 324.5t-306 119.5t-306.5 -122t-112.5 -322z" />
<glyph unicode="p" horiz-adv-x="1284" d="M192 -487v1511h106l4 -152q139 177 377 177q230 0 357 -145t127 -394q0 -254 -117.5 -395.5t-345.5 -141.5q-98 0 -182 36t-208 140v-636h-118zM310 254q122 -112 197.5 -149t166.5 -37q372 0 372 442q0 202 -102 323t-295 121q-219 0 -339 -186v-514z" />
<glyph unicode="q" horiz-adv-x="1265" d="M121 510q0 249 127 394t357 145q238 0 377 -177l4 152h106v-1511h-118v636q-124 -104 -208 -140t-182 -36q-228 0 -345.5 141.5t-117.5 395.5zM238 510q0 -442 372 -442q91 0 166.5 37t197.5 149v514q-120 186 -339 186q-193 0 -295 -121t-102 -323z" />
<glyph unicode="r" horiz-adv-x="735" d="M174 0v1024h106l5 -181q75 100 175 153.5t210 54.5h14v-97h-29q-103 0 -198 -51.5t-165 -159.5v-743h-118z" />
<glyph unicode="s" horiz-adv-x="1028" d="M80 122l40 75q58 -56 166.5 -91t222.5 -35q134 0 222.5 51t88.5 151q0 45 -17.5 78t-38 52t-69.5 36t-76 23t-95 18q-25 5 -37 7q-59 11 -97 19.5t-85 23t-75.5 33.5t-55 46t-38.5 65t-12 86q0 94 62.5 160.5t156 96.5t206.5 30q204 0 347 -89l-36 -78q-62 36 -146 56.5 t-168 20.5q-129 0 -217.5 -51t-88.5 -145q0 -38 13.5 -66.5t34 -46.5t56 -32.5t66.5 -22.5t79 -17q16 -3 49 -9q83 -15 124.5 -24t104 -31.5t92 -50.5t53 -76.5t23.5 -114.5q0 -95 -63.5 -162t-157 -96.5t-203.5 -29.5q-126 0 -245 37.5t-186 102.5z" />
<glyph unicode="t" horiz-adv-x="813" d="M49 933v91h207v299h117v-299h311v-91h-311v-508q0 -156 83.5 -243.5t233.5 -103.5v-90q-203 12 -318.5 123t-115.5 314v508h-207z" />
<glyph unicode="u" horiz-adv-x="1253" d="M157 352v672h117v-651q0 -97 51.5 -168.5t128.5 -104t165 -32.5q95 0 171 40t189 142v774h118v-1024h-106l-4 157q-115 -99 -199.5 -142.5t-195.5 -43.5q-64 0 -125.5 15t-118 46t-99 75.5t-67.5 107.5t-25 137z" />
<glyph unicode="v" horiz-adv-x="1056" d="M51 1024h121l356 -905l357 905h120l-413 -1024h-127z" />
<glyph unicode="w" horiz-adv-x="1669" d="M51 1024h120l316 -885l292 885h111l291 -885l316 885h120l-374 -1024h-125l-284 851l-283 -851h-126z" />
<glyph unicode="x" horiz-adv-x="1017" d="M51 0l388 515l-372 509h127l319 -431l310 431h128l-366 -512l381 -512h-128l-327 439l-332 -439h-128z" />
<glyph unicode="y" horiz-adv-x="1118" d="M82 -418q149 0 253 66q96 65 146 188l65 164h-23l-421 1024h120l365 -907l360 907h120l-495 -1225q-127 -307 -490 -307v90z" />
<glyph unicode="z" horiz-adv-x="968" d="M85 0v54l629 879h-597v91h752v-52l-632 -881h644v-91h-796z" />
<glyph unicode="{" horiz-adv-x="774" d="M92 504v96q77 8 118 53t41 115v260q0 199 117 308.5t311 126.5l2 -90q-148 -18 -233 -107.5t-85 -237.5v-259q0 -76 -39 -133t-104 -84q65 -27 104 -84t39 -133v-259q0 -149 85 -238t233 -108l-3 -90q-195 18 -311.5 127.5t-116.5 307.5v260q0 71 -41 116t-117 53z" />
<glyph unicode="|" horiz-adv-x="307" d="M92 -295v1831h122v-1831h-122z" />
<glyph unicode="}" horiz-adv-x="774" d="M92 1373l3 90q194 -17 311 -126.5t117 -308.5v-259q0 -71 41 -116t117 -53v-96q-76 -8 -117 -53t-41 -116v-259q0 -101 -32 -181t-90 -132.5t-135 -83t-171 -39.5l-2 90q148 19 232.5 108t84.5 237v260q0 76 39 133t104 84q-65 27 -104 83.5t-39 132.5v260 q0 149 -85.5 238t-232.5 107z" />
<glyph unicode="~" horiz-adv-x="1087" d="M92 540q92 182 245 182q95 0 246 -86q114 -65 197 -65q114 0 151 105l65 -34q-30 -74 -86 -113t-126 -39q-93 0 -211 67q-148 84 -232 84q-118 0 -185 -136z" />
<glyph unicode="&#xa1;" horiz-adv-x="327" d="M92 1007q0 28 21.5 47.5t50.5 19.5t50 -19.5t21 -47.5t-21 -47t-50 -19t-50.5 19t-21.5 47zM106 -369v1120h116v-1120h-116z" />
<glyph unicode="&#xa2;" horiz-adv-x="1013" d="M90 512q0 208 117 354t323 174v169h111v-161l23 -1q164 -9 253 -71l-65 -76q-74 56 -219 56q-196 0 -311 -124t-115 -320q0 -200 117 -322t309 -122q59 0 122.5 16t106.5 45l64 -76q-50 -32 -123 -52.5t-139 -23.5l-23 -2v-159h-111v168q-203 28 -321.5 172t-118.5 356z " />
<glyph unicode="&#xa3;" horiz-adv-x="1286" d="M93 0v102q100 113 145.5 199.5t52.5 162.5q3 22 3 45q0 50 -18 127h-182v102h159q-18 61 -27 94t-18.5 94.5t-9.5 120.5q7 413 484 413q89 0 159 -10.5t131.5 -37t103 -68.5t65.5 -107.5t26 -152.5h-118q-3 79 -28.5 133t-75 83.5t-111.5 42t-148 12.5q-171 0 -265 -74 t-97 -244q0 -57 9.5 -117t18 -90.5t27.5 -91.5h552v-102h-531q19 -79 19 -140q0 -174 -168 -394h943v-102h-1101z" />
<glyph unicode="&#xa4;" horiz-adv-x="1495" />
<glyph unicode="&#xa5;" horiz-adv-x="1413" d="M87 1434h141l479 -750l478 750h141l-431 -668h193v-91h-249l-71 -120v-125h320v-91h-320v-339h-122v339h-321v91h321v125l-72 120h-249v91h194z" />
<glyph unicode="&#xa6;" horiz-adv-x="307" d="M92 -295v749h122v-749h-122zM92 787v749h122v-749h-122z" />
<glyph unicode="&#xa7;" horiz-adv-x="1150" d="M92 -137l58 84q66 -64 189.5 -105.5t253.5 -41.5q150 0 250.5 60.5t100.5 175.5q0 43 -11.5 76.5t-36.5 57t-53 40t-71.5 29t-80.5 20.5t-92 18q-23 4 -34 6q-57 11 -95 19t-85 22t-77.5 29.5t-62 39t-49.5 52t-29.5 68.5t-11.5 88q0 95 55.5 163t150.5 106 q-98 36 -152 96t-54 164q0 82 40.5 147.5t109 105.5t153 60.5t178.5 20.5q219 0 376 -93l-58 -87q-143 81 -331 81q-148 0 -249.5 -59t-101.5 -169q0 -45 17 -79.5t41 -55.5t67.5 -38t79 -25.5t93.5 -19.5q190 -36 248 -54q158 -48 210 -149q32 -63 32 -150 q0 -172 -181 -260q87 -37 134 -100.5t47 -168.5q0 -84 -41 -150t-110.5 -105.5t-153.5 -60t-176 -20.5q-143 0 -277 43t-210 119zM269 610q0 -44 16 -78t40 -55t65.5 -38t78.5 -26t93 -20q171 -32 199 -40q87 26 137.5 79t50.5 132q0 52 -19 90.5t-47.5 62t-77 41t-93 27 t-109.5 21.5q-31 5 -46 8l-63 13q-102 -22 -163.5 -77.5t-61.5 -139.5z" />
<glyph unicode="&#xa8;" horiz-adv-x="729" d="M99 1300q0 26 18.5 44t49.5 18t49 -18t18 -44t-18 -44.5t-49 -18.5t-49.5 18.5t-18.5 44.5zM495 1300q0 26 18.5 44t49.5 18t49 -18t18 -44t-18 -44.5t-49 -18.5t-49.5 18.5t-18.5 44.5z" />
<glyph unicode="&#xa9;" horiz-adv-x="1658" d="M92 717q0 150 58.5 286.5t157 235t235 157t286.5 58.5t286.5 -58.5t235 -157t157 -235t58.5 -286.5t-58.5 -286.5t-157 -235t-235 -157t-286.5 -58.5t-286.5 58.5t-235 157t-157 235t-58.5 286.5zM178 718q0 -133 51.5 -253.5t139 -208t208 -139.5t252.5 -52t253 52 t208 139.5t139 208t52 253.5t-52 253.5t-139.5 208t-208 139.5t-252.5 52q-176 0 -326 -87.5t-237.5 -238t-87.5 -327.5zM449 717q0 176 105.5 289t287.5 113q138 0 234 -70l-53 -60q-72 59 -181 59q-144 0 -226 -90.5t-82 -240.5t82 -240.5t226 -90.5q109 0 181 59l53 -60 q-97 -71 -234 -71q-182 0 -287.5 113.5t-105.5 289.5z" />
<glyph unicode="&#xaa;" horiz-adv-x="1114" d="M222 943q0 59 25 104.5t68 72.5t96 41t112 14q134 0 237 -56v70q-1 60 -35.5 103.5t-85.5 64t-111 20.5q-116 0 -224 -62l-27 59q126 72 264 72q59 0 114 -16.5t99.5 -48t71.5 -82t27 -113.5v-456h-84l-3 94q-106 -112 -270 -112q-113 0 -193.5 61.5t-80.5 169.5z M309 948q0 -78 59 -121t147 -43q156 0 246 112v157q-95 60 -225 60q-98 0 -162.5 -41t-64.5 -124z" />
<glyph unicode="&#xab;" horiz-adv-x="1134" d="M92 600l443 480l77 -61l-383 -419l383 -418l-77 -61zM522 600l444 480l76 -61l-382 -419l382 -418l-76 -61z" />
<glyph unicode="&#xac;" horiz-adv-x="1495" />
<glyph unicode="&#xad;" horiz-adv-x="944" d="M92 660v99h759v-99h-759z" />
<glyph unicode="&#xae;" horiz-adv-x="1658" d="M92 717q0 150 58.5 286.5t157 235t235 157t286.5 58.5t286.5 -58.5t235 -157t157 -235t58.5 -286.5t-58.5 -286.5t-157 -235t-235 -157t-286.5 -58.5t-286.5 58.5t-235 157t-157 235t-58.5 286.5zM178 718q0 -133 51.5 -253.5t139 -208t208 -139.5t252.5 -52t253 52 t208 139.5t139 208t52 253.5t-52 253.5t-139.5 208t-208 139.5t-252.5 52q-176 0 -326 -87.5t-237.5 -238t-87.5 -327.5zM553 340v759h314q113 0 178.5 -66.5t65.5 -172.5q0 -91 -47 -152.5t-132 -77.5l214 -290h-93l-196 278h-226v-278h-78zM631 685h231q82 0 126.5 46.5 t44.5 128.5q0 81 -45 128t-126 47h-231v-350z" />
<glyph unicode="&#xaf;" horiz-adv-x="798" d="M92 1385v77h615v-77h-615z" />
<glyph unicode="&#xb0;" horiz-adv-x="808" d="M92 1337q0 124 91 213.5t221 89.5t221 -89.5t91 -213.5t-91 -213.5t-221 -89.5t-221 89.5t-91 213.5zM174 1337q0 -97 69 -163.5t161 -66.5t161 66.5t69 163.5t-69 163.5t-161 66.5t-161 -66.5t-69 -163.5z" />
<glyph unicode="&#xb1;" horiz-adv-x="1009" d="M92 -33v99h825v-99h-825zM92 747v98h364v355h98v-355h363v-98h-363v-356h-98v356h-364z" />
<glyph unicode="&#xb2;" horiz-adv-x="753" d="M98 718v168q0 114 78 166.5t220 60.5q98 6 137.5 32.5t39.5 101.5q0 74 -46 100t-147 26q-104 0 -150 -28.5t-45 -108.5h-87q-4 117 70 163.5t212 46.5q64 0 112 -9t88 -30t61 -61t21 -98q0 -112 -64 -156t-196 -51q-110 -6 -161.5 -38.5t-52.5 -109.5v-100h470v-75h-560 z" />
<glyph unicode="&#xb3;" horiz-adv-x="765" d="M92 916h89q0 -79 48.5 -108t152.5 -29q103 0 151.5 28.5t48.5 108.5t-48.5 109.5t-151.5 29.5h-104v68h104q93 0 137 26.5t44 99.5q0 72 -43.5 97.5t-137.5 25.5t-138 -26t-44 -96h-89q0 196 271 196q59 0 105 -8.5t85.5 -29t61 -59.5t21.5 -95q0 -123 -111 -164 q129 -41 129 -179q0 -60 -22.5 -101.5t-64.5 -63.5t-91 -31.5t-113 -9.5q-134 0 -211.5 47.5t-78.5 163.5z" />
<glyph unicode="&#xb4;" horiz-adv-x="571" d="M92 1218l326 273l62 -73l-326 -274z" />
<glyph unicode="&#xb6;" horiz-adv-x="1523" d="M92 962q0 213 128 342.5t352 129.5h859v-99h-203v-1814h-122v1814h-324v-1814h-122v970h-112q-215 7 -335.5 134.5t-120.5 336.5z" />
<glyph unicode="&#xb7;" horiz-adv-x="319" d="M92 621q0 26 18.5 43.5t49.5 17.5t49 -17.5t18 -43.5t-18 -44t-49 -18t-49.5 18t-18.5 44z" />
<glyph unicode="&#xb8;" horiz-adv-x="608" d="M92 -408l50 46q40 -58 138 -58q68 0 108.5 33t40.5 92q0 58 -41.5 91.5t-111.5 33.5q-38 0 -63 -8l-34 20l102 172h84l-85 -139q24 4 38 4q89 -2 144 -48.5t55 -130.5q0 -88 -65.5 -140t-165.5 -52q-137 0 -194 84z" />
<glyph unicode="&#xb9;" horiz-adv-x="417" d="M92 1319v76l171 38h62v-721h-92v638z" />
<glyph unicode="&#xba;" horiz-adv-x="1230" d="M249 1079q0 160 97.5 263.5t268.5 103.5q170 0 268.5 -101.5t98.5 -265.5q0 -163 -97 -265t-270 -102q-171 0 -268.5 103.5t-97.5 263.5zM341 1079q0 -133 73 -213t201 -80q130 0 202.5 78.5t72.5 214.5t-73.5 214t-201.5 78t-201 -79.5t-73 -212.5z" />
<glyph unicode="&#xbb;" horiz-adv-x="1134" d="M92 182l383 418l-383 419l77 61l443 -480l-443 -479zM523 182l382 418l-382 419l76 61l444 -480l-444 -479z" />
<glyph unicode="&#xbc;" horiz-adv-x="1347" d="M107 1319v76l170 38h63v-721h-92v638zM110 -35l921 1503h121l-921 -1503h-121zM657 160v68l427 494h84v-489h88v-73h-88v-160h-83v160h-428zM761 233h324v379z" />
<glyph unicode="&#xbd;" horiz-adv-x="1521" d="M107 1319v76l170 38h63v-721h-92v638zM110 -35l921 1503h121l-921 -1503h-121zM865 0v169q0 114 78 166.5t220 60.5q98 6 137.5 32t39.5 101q0 74 -46 100t-147 26q-104 0 -150 -28.5t-45 -108.5h-87q-4 117 70 163.5t212 46.5q64 0 112 -9t88 -30t61 -61t21 -98 q0 -112 -64 -155.5t-196 -50.5q-110 -6 -161.5 -38.5t-52.5 -110.5v-100h470v-75h-560z" />
<glyph unicode="&#xbe;" horiz-adv-x="1574" d="M92 916h89q0 -79 48.5 -108t152.5 -29q103 0 151.5 28.5t48.5 108.5t-48.5 109.5t-151.5 29.5h-104v68h104q93 0 137 26.5t44 99.5q0 72 -43.5 97.5t-137.5 25.5t-138 -26t-44 -96h-89q0 196 271 196q59 0 105 -8.5t85.5 -29t61 -59.5t21.5 -95q0 -123 -111 -164 q129 -41 129 -179q0 -60 -22.5 -101.5t-64.5 -63.5t-91 -31.5t-113 -9.5q-134 0 -211.5 47.5t-78.5 163.5zM337 -35l921 1503h121l-921 -1503h-121zM884 160v68l427 494h84v-489h88v-73h-88v-160h-83v160h-428zM988 233h324v379z" />
<glyph unicode="&#xbf;" horiz-adv-x="1255" d="M92 17q0 66 11.5 121t28.5 92.5t47 68t55.5 48.5t66 33.5t67 22.5t69.5 17q31 7 46 10.5t41.5 11.5t40 15.5t33.5 19.5t30 26.5t21 33.5t15.5 44t4.5 55v157h122v-198q0 -60 -18 -105t-40 -70.5t-69.5 -46.5t-76 -28.5t-89.5 -21.5q-6 -1 -9 -2q-37 -8 -59.5 -14 t-55 -18.5t-52.5 -26t-43 -36.5t-35.5 -52t-21 -70t-8.5 -91q0 -64 19.5 -111t53.5 -77t87 -48t113 -25t140 -7t141 7t114.5 25.5t87.5 48t53 76.5t19 110h121q0 -85 -26.5 -149.5t-72.5 -104.5t-115 -65.5t-145.5 -35t-173.5 -9.5t-173 9.5t-146.5 34.5t-117 65.5 t-74 106.5t-27.5 153zM659 1049q0 28 21 47.5t50 19.5t50 -19.5t21 -47.5t-21 -47.5t-50 -19.5t-50 19.5t-21 47.5z" />
<glyph unicode="&#xc0;" d="M87 0l597 1434h129l597 -1434h-128l-163 396h-741l-163 -396h-128zM416 498h665l-332 805zM553 1828l62 73l326 -274l-62 -73z" />
<glyph unicode="&#xc1;" d="M87 0l597 1434h129l597 -1434h-128l-163 396h-741l-163 -396h-128zM416 498h665l-332 805zM558 1627l326 274l61 -73l-326 -274z" />
<glyph unicode="&#xc2;" d="M87 0l597 1434h129l597 -1434h-128l-163 396h-741l-163 -396h-128zM416 498h665l-332 805zM434 1607l312 314l311 -314l-63 -63l-248 253l-249 -253z" />
<glyph unicode="&#xc3;" d="M87 0l597 1434h129l597 -1434h-128l-163 396h-741l-163 -396h-128zM416 498h665l-332 805zM469 1709q59 128 154 128q40 0 134 -45.5t126 -45.5q50 0 80 69l69 -39q-47 -113 -138 -113q-54 0 -141 47q-81 45 -119 45q-55 0 -96 -86z" />
<glyph unicode="&#xc4;" d="M87 0l597 1434h129l597 -1434h-128l-163 396h-741l-163 -396h-128zM416 498h665l-332 805zM480 1709q0 26 18.5 44t49.5 18t49 -18t18 -44t-18 -44t-49 -18t-49.5 18t-18.5 44zM876 1709q0 26 18.5 44t49.5 18t49 -18t18 -44t-18 -44t-49 -18t-49.5 18t-18.5 44z" />
<glyph unicode="&#xc5;" d="M87 0l597 1434h129l597 -1434h-128l-163 396h-741l-163 -396h-128zM416 498h665l-332 805zM520 1751q0 89 66 153.5t160 64.5q95 0 161 -64.5t66 -153.5t-66.5 -154t-160.5 -65t-160 65t-66 154zM594 1751q0 -64 46 -108.5t106 -44.5t106.5 44.5t46.5 108.5t-46.5 108 t-106.5 44t-106 -44t-46 -108z" />
<glyph unicode="&#xc6;" horiz-adv-x="1759" d="M87 0l597 1434h960v-103h-773v-541h709v-102h-709v-586h773v-102h-895v396h-371l-163 -396h-128zM416 498h333v805z" />
<glyph unicode="&#xc7;" horiz-adv-x="1402" d="M144 718q0 159 48.5 294.5t139 234.5t227.5 155t305 56q242 0 415 -119l-77 -83q-137 99 -338 99q-186 0 -322.5 -81t-206.5 -224t-70 -332t70 -332t206.5 -224t322.5 -81q201 0 338 99l77 -84q-167 -113 -397 -119q-66 0 -133 9l-71 -111q26 4 40 4q89 -3 143 -49.5 t54 -129.5q0 -88 -65.5 -140t-165.5 -52q-137 0 -194 84l50 46q40 -58 138 -58q68 0 108.5 33t40.5 92q0 58 -41.5 91.5t-111.5 33.5q-38 0 -63 -8l-34 20l94 156q-250 56 -388.5 250.5t-138.5 469.5z" />
<glyph unicode="&#xc8;" horiz-adv-x="1210" d="M200 0v1434h895v-103h-773v-541h709v-102h-709v-586h773v-102h-895zM420 1828l62 73l326 -274l-62 -73z" />
<glyph unicode="&#xc9;" horiz-adv-x="1210" d="M200 0v1434h895v-103h-773v-541h709v-102h-709v-586h773v-102h-895zM425 1627l326 274l62 -73l-326 -274z" />
<glyph unicode="&#xca;" horiz-adv-x="1210" d="M200 0v1434h895v-103h-773v-541h709v-102h-709v-586h773v-102h-895zM302 1607l311 314l311 -314l-63 -63l-248 253l-248 -253z" />
<glyph unicode="&#xcb;" horiz-adv-x="1210" d="M200 0v1434h895v-103h-773v-541h709v-102h-709v-586h773v-102h-895zM348 1709q0 26 18 44t49 18t49.5 -18t18.5 -44t-18.5 -44t-49.5 -18t-49 18t-18 44zM743 1709q0 26 18.5 44t49.5 18t49 -18t18 -44t-18 -44t-49 -18t-49.5 18t-18.5 44z" />
<glyph unicode="&#xcc;" horiz-adv-x="522" d="M67 1828l62 73l326 -274l-62 -73zM200 0v1434h122v-1434h-122z" />
<glyph unicode="&#xcd;" horiz-adv-x="522" d="M71 1627l327 274l61 -73l-326 -274zM200 0v1434h122v-1434h-122z" />
<glyph unicode="&#xce;" horiz-adv-x="522" d="M-51 1607l310 314l312 -314l-63 -63l-249 253l-249 -253zM200 0v1434h122v-1434h-122z" />
<glyph unicode="&#xcf;" horiz-adv-x="522" d="M-6 1709q0 26 18.5 44t49.5 18t49 -18t18 -44t-18 -44t-49 -18t-49.5 18t-18.5 44zM200 0v1434h122v-1434h-122zM390 1709q0 26 18.5 44t49.5 18t49 -18t18 -44t-18 -44t-49 -18t-49.5 18t-18.5 44z" />
<glyph unicode="&#xd0;" horiz-adv-x="1538" d="M6 654v99h209v681h457q224 0 388.5 -90.5t249 -251.5t84.5 -374q0 -215 -83.5 -376.5t-248 -251.5t-390.5 -90h-457v654h-209zM337 103h335q286 0 443 163.5t157 451.5q0 284 -158.5 448.5t-441.5 164.5h-335v-578h392v-98h-392v-552z" />
<glyph unicode="&#xd1;" horiz-adv-x="1490" d="M182 0v1434h147l858 -1231v1231h122v-1434h-148l-857 1230v-1230h-122zM470 1709q59 128 153 128q53 0 136 -46q85 -45 124 -45q51 0 81 69l69 -39q-47 -113 -138 -113q-54 0 -141 47q-81 45 -119 45q-55 0 -96 -86z" />
<glyph unicode="&#xd2;" horiz-adv-x="1728" d="M144 718q0 159 48.5 294.5t138.5 234.5t227 155t305 56t305 -56t228 -155t140 -234.5t49 -294.5q0 -161 -48.5 -297t-139 -235.5t-227.5 -155t-307 -55.5q-220 0 -384.5 96.5t-249.5 264t-85 382.5zM265 718q0 -289 161 -464t437 -175q282 0 441 174t159 465 q0 287 -160 462t-440 175q-186 0 -322.5 -81t-206 -224t-69.5 -332zM673 1828l61 73l326 -274l-61 -73z" />
<glyph unicode="&#xd3;" horiz-adv-x="1728" d="M144 718q0 159 48.5 294.5t138.5 234.5t227 155t305 56t305 -56t228 -155t140 -234.5t49 -294.5q0 -161 -48.5 -297t-139 -235.5t-227.5 -155t-307 -55.5q-220 0 -384.5 96.5t-249.5 264t-85 382.5zM265 718q0 -289 161 -464t437 -175q282 0 441 174t159 465 q0 287 -160 462t-440 175q-186 0 -322.5 -81t-206 -224t-69.5 -332zM677 1627l326 274l62 -73l-326 -274z" />
<glyph unicode="&#xd4;" horiz-adv-x="1728" d="M144 718q0 159 48.5 294.5t138.5 234.5t227 155t305 56t305 -56t228 -155t140 -234.5t49 -294.5q0 -161 -48.5 -297t-139 -235.5t-227.5 -155t-307 -55.5q-220 0 -384.5 96.5t-249.5 264t-85 382.5zM265 718q0 -289 161 -464t437 -175q282 0 441 174t159 465 q0 287 -160 462t-440 175q-186 0 -322.5 -81t-206 -224t-69.5 -332zM554 1607l311 314l311 -314l-63 -63l-248 253l-248 -253z" />
<glyph unicode="&#xd5;" horiz-adv-x="1728" d="M144 718q0 159 48.5 294.5t138.5 234.5t227 155t305 56t305 -56t228 -155t140 -234.5t49 -294.5q0 -161 -48.5 -297t-139 -235.5t-227.5 -155t-307 -55.5q-220 0 -384.5 96.5t-249.5 264t-85 382.5zM265 718q0 -289 161 -464t437 -175q282 0 441 174t159 465 q0 287 -160 462t-440 175q-186 0 -322.5 -81t-206 -224t-69.5 -332zM589 1709q59 128 153 128q53 0 136 -46q85 -45 124 -45q51 0 81 69l69 -39q-47 -113 -138 -113q-55 0 -142 47q-81 45 -118 45q-56 0 -97 -86z" />
<glyph unicode="&#xd6;" horiz-adv-x="1728" d="M144 718q0 159 48.5 294.5t138.5 234.5t227 155t305 56t305 -56t228 -155t140 -234.5t49 -294.5q0 -161 -48.5 -297t-139 -235.5t-227.5 -155t-307 -55.5q-220 0 -384.5 96.5t-249.5 264t-85 382.5zM265 718q0 -289 161 -464t437 -175q282 0 441 174t159 465 q0 287 -160 462t-440 175q-186 0 -322.5 -81t-206 -224t-69.5 -332zM600 1709q0 26 18 44t49 18t49.5 -18t18.5 -44t-18.5 -44t-49.5 -18t-49 18t-18 44zM996 1709q0 26 18 44t49 18t49.5 -18t18.5 -44t-18.5 -44t-49.5 -18t-49 18t-18 44z" />
<glyph unicode="&#xd7;" horiz-adv-x="837" d="M92 342l257 257l-257 257l70 69l257 -257l257 257l69 -69l-257 -257l257 -257l-69 -69l-257 257l-257 -257z" />
<glyph unicode="&#xd8;" horiz-adv-x="1728" d="M144 718q0 159 48.5 294.5t138.5 234.5t227 155t305 56q133 0 250 -36l50 114h120l-68 -155q177 -88 273.5 -262t96.5 -401q0 -161 -48.5 -297t-139 -235.5t-227.5 -155t-307 -55.5q-130 0 -247 36l-50 -113h-120l68 154q-176 88 -273 263t-97 403zM265 718 q0 -195 76 -342t216 -224l514 1173q-95 30 -208 30q-186 0 -322.5 -81t-206 -224t-69.5 -332zM658 109q93 -30 205 -30q282 0 441 174t159 465q0 195 -75 341.5t-216 222.5z" />
<glyph unicode="&#xd9;" horiz-adv-x="1525" d="M200 651v783h122v-774q0 -144 22.5 -247.5t73.5 -179t139 -112.5t215 -37q128 0 216 38t139 114.5t73 179t22 244.5v774h122v-783q0 -125 -16.5 -224.5t-57.5 -186t-105.5 -144.5t-163.5 -90.5t-229 -32.5q-129 0 -227.5 32t-163.5 89t-106 142.5t-58 186.5t-17 228z M570 1828l62 73l326 -274l-62 -73z" />
<glyph unicode="&#xda;" horiz-adv-x="1525" d="M200 651v783h122v-774q0 -144 22.5 -247.5t73.5 -179t139 -112.5t215 -37q128 0 216 38t139 114.5t73 179t22 244.5v774h122v-783q0 -125 -16.5 -224.5t-57.5 -186t-105.5 -144.5t-163.5 -90.5t-229 -32.5q-129 0 -227.5 32t-163.5 89t-106 142.5t-58 186.5t-17 228z M575 1627l326 274l61 -73l-326 -274z" />
<glyph unicode="&#xdb;" horiz-adv-x="1525" d="M200 651v783h122v-774q0 -144 22.5 -247.5t73.5 -179t139 -112.5t215 -37q128 0 216 38t139 114.5t73 179t22 244.5v774h122v-783q0 -125 -16.5 -224.5t-57.5 -186t-105.5 -144.5t-163.5 -90.5t-229 -32.5q-129 0 -227.5 32t-163.5 89t-106 142.5t-58 186.5t-17 228z M451 1607l311 314l312 -314l-63 -63l-249 253l-248 -253z" />
<glyph unicode="&#xdc;" horiz-adv-x="1525" d="M200 651v783h122v-774q0 -144 22.5 -247.5t73.5 -179t139 -112.5t215 -37q128 0 216 38t139 114.5t73 179t22 244.5v774h122v-783q0 -125 -16.5 -224.5t-57.5 -186t-105.5 -144.5t-163.5 -90.5t-229 -32.5q-129 0 -227.5 32t-163.5 89t-106 142.5t-58 186.5t-17 228z M497 1709q0 26 18.5 44t49.5 18t49 -18t18 -44t-18 -44t-49 -18t-49.5 18t-18.5 44zM893 1709q0 26 18.5 44t49.5 18t49 -18t18 -44t-18.5 -44t-49.5 -18t-49 18t-18 44z" />
<glyph unicode="&#xdd;" horiz-adv-x="1413" d="M87 1434h141l479 -750l478 750h141l-558 -863v-571h-122v572zM518 1627l326 274l61 -73l-326 -274z" />
<glyph unicode="&#xde;" horiz-adv-x="1417" d="M200 0v1434h122v-238h469q224 0 351.5 -129.5t127.5 -342.5q0 -215 -126.5 -344t-352.5 -129h-469v-251h-122zM322 352h457q175 0 272 99.5t97 272.5q0 171 -97.5 271t-271.5 100h-457v-743z" />
<glyph unicode="&#xdf;" horiz-adv-x="1374" d="M180 1v1090q2 85 26.5 150t66 106t102.5 66.5t128 35.5t151 10q85 0 152 -9.5t128.5 -35.5t102.5 -67.5t65 -108.5t24 -156q0 -137 -54 -214.5t-156 -111.5q165 -28 253 -117t88 -265q0 -96 -28.5 -166t-75.5 -112.5t-120.5 -67.5t-150 -33.5t-176.5 -8.5h-238v104h242 q83 0 144 6.5t117 25.5t90 51t54.5 85t20.5 126q0 90 -28.5 151t-86 94t-128.5 46.5t-171 14.5h-37v102h19q72 3 123.5 17.5t93 45t62.5 85t21 132.5q0 84 -24 140.5t-72 87t-108.5 42.5t-145.5 12q-172 0 -260.5 -59t-91.5 -211v-1083h-122z" />
<glyph unicode="&#xe0;" horiz-adv-x="1187" d="M110 310q0 86 36.5 152.5t99 106t139.5 59.5t165 20q205 0 363 -90v116q0 92 -54 160t-133 99.5t-170 31.5q-169 0 -329 -90l-32 74q183 102 381 102q86 0 166 -24t145 -70t104 -120t39 -166v-671h-105l-4 154q-156 -179 -410 -179q-107 0 -196 36.5t-147 114.5t-58 184z M221 316q0 -119 91.5 -185.5t225.5 -66.5q236 0 375 173v241q-68 44 -159 68.5t-185 24.5q-96 0 -172 -25.5t-126 -84.5t-50 -145zM406 1418l62 73l326 -273l-62 -74z" />
<glyph unicode="&#xe1;" horiz-adv-x="1187" d="M110 310q0 86 36.5 152.5t99 106t139.5 59.5t165 20q205 0 363 -90v116q0 92 -54 160t-133 99.5t-170 31.5q-169 0 -329 -90l-32 74q183 102 381 102q86 0 166 -24t145 -70t104 -120t39 -166v-671h-105l-4 154q-156 -179 -410 -179q-107 0 -196 36.5t-147 114.5t-58 184z M221 316q0 -119 91.5 -185.5t225.5 -66.5q236 0 375 173v241q-68 44 -159 68.5t-185 24.5q-96 0 -172 -25.5t-126 -84.5t-50 -145zM411 1218l326 273l62 -73l-326 -274z" />
<glyph unicode="&#xe2;" horiz-adv-x="1187" d="M110 310q0 86 36.5 152.5t99 106t139.5 59.5t165 20q205 0 363 -90v116q0 92 -54 160t-133 99.5t-170 31.5q-169 0 -329 -90l-32 74q183 102 381 102q86 0 166 -24t145 -70t104 -120t39 -166v-671h-105l-4 154q-156 -179 -410 -179q-107 0 -196 36.5t-147 114.5t-58 184z M221 316q0 -119 91.5 -185.5t225.5 -66.5q236 0 375 173v241q-68 44 -159 68.5t-185 24.5q-96 0 -172 -25.5t-126 -84.5t-50 -145zM288 1198l311 314l311 -314l-63 -63l-248 253l-248 -253z" />
<glyph unicode="&#xe3;" horiz-adv-x="1187" d="M110 310q0 86 36.5 152.5t99 106t139.5 59.5t165 20q205 0 363 -90v116q0 92 -54 160t-133 99.5t-170 31.5q-169 0 -329 -90l-32 74q183 102 381 102q86 0 166 -24t145 -70t104 -120t39 -166v-671h-105l-4 154q-156 -179 -410 -179q-107 0 -196 36.5t-147 114.5t-58 184z M221 316q0 -119 91.5 -185.5t225.5 -66.5q236 0 375 173v241q-68 44 -159 68.5t-185 24.5q-96 0 -172 -25.5t-126 -84.5t-50 -145zM322 1299q59 129 154 129q52 0 135 -46q87 -46 125 -46q50 0 80 69l69 -39q-47 -112 -137 -112q-57 0 -142 46q-81 45 -118 45q-56 0 -97 -86 z" />
<glyph unicode="&#xe4;" horiz-adv-x="1187" d="M110 310q0 86 36.5 152.5t99 106t139.5 59.5t165 20q205 0 363 -90v116q0 92 -54 160t-133 99.5t-170 31.5q-169 0 -329 -90l-32 74q183 102 381 102q86 0 166 -24t145 -70t104 -120t39 -166v-671h-105l-4 154q-156 -179 -410 -179q-107 0 -196 36.5t-147 114.5t-58 184z M221 316q0 -119 91.5 -185.5t225.5 -66.5q236 0 375 173v241q-68 44 -159 68.5t-185 24.5q-96 0 -172 -25.5t-126 -84.5t-50 -145zM334 1300q0 26 18 44t49 18t49.5 -18t18.5 -44t-18.5 -44.5t-49.5 -18.5t-49 18.5t-18 44.5zM729 1300q0 26 18.5 44t49.5 18t49 -18t18 -44 t-18 -44.5t-49 -18.5t-49.5 18.5t-18.5 44.5z" />
<glyph unicode="&#xe5;" horiz-adv-x="1187" d="M110 310q0 86 36.5 152.5t99 106t139.5 59.5t165 20q205 0 363 -90v116q0 92 -54 160t-133 99.5t-170 31.5q-169 0 -329 -90l-32 74q183 102 381 102q86 0 166 -24t145 -70t104 -120t39 -166v-671h-105l-4 154q-156 -179 -410 -179q-107 0 -196 36.5t-147 114.5t-58 184z M221 316q0 -119 91.5 -185.5t225.5 -66.5q236 0 375 173v241q-68 44 -159 68.5t-185 24.5q-96 0 -172 -25.5t-126 -84.5t-50 -145zM373 1341q0 89 66 153.5t161 64.5q94 0 160 -64.5t66 -153.5t-66 -153.5t-160 -64.5q-95 0 -161 64.5t-66 153.5zM447 1341q0 -64 46.5 -108 t106.5 -44t106 44t46 108t-46 108t-106 44t-106.5 -44t-46.5 -108z" />
<glyph unicode="&#xe6;" horiz-adv-x="2068" d="M110 310q0 86 36.5 152.5t99 106t139.5 59.5t165 20q205 0 363 -90v117q-1 92 -54.5 159.5t-132.5 99t-170 31.5q-169 0 -329 -90l-32 74q183 102 381 102q102 0 193.5 -33t159 -104t82.5 -168q52 143 171.5 225t294.5 82q235 0 362.5 -120t127.5 -350q0 -71 -12 -134 h-879q17 -175 126 -278t287 -104q190 -3 340 81l50 -64q-163 -109 -390 -109q-169 0 -288 78t-171 215v-268h-105l-4 154q-156 -179 -410 -179q-107 0 -196 36.5t-147 114.5t-58 184zM221 316q0 -119 91.5 -185.5t225.5 -66.5q235 0 375 173v241q-68 44 -159 68.5t-185 24.5 q-96 0 -172 -25.5t-126 -84.5t-50 -145zM1076 522h775q6 44 6 82q0 358 -378 358q-189 0 -294.5 -115.5t-108.5 -301.5v-23z" />
<glyph unicode="&#xe7;" horiz-adv-x="1058" d="M121 512q0 113 36 211t103 171t169.5 115t227.5 42q91 0 168 -20.5t123 -54.5l-65 -76q-74 56 -219 56q-196 0 -311 -124t-115 -320q0 -200 117 -322t309 -122q59 0 122.5 16t106.5 45l64 -76q-53 -35 -130.5 -56t-151.5 -24q-51 0 -97 9l-68 -107q26 4 40 4 q89 -3 143 -49.5t54 -129.5q0 -89 -65 -140.5t-165 -51.5q-137 0 -194 84l50 46q40 -58 137 -58q68 0 108.5 33t40.5 92q0 58 -41.5 91.5t-111.5 33.5q-37 0 -62 -8l-34 20l90 150q-177 45 -278 185.5t-101 334.5z" />
<glyph unicode="&#xe8;" horiz-adv-x="1230" d="M121 515q0 154 58 274t177 192t283 72q235 0 362.5 -120t127.5 -350q0 -71 -12 -134h-879q17 -175 126 -278t287 -104q187 -3 340 81l50 -63q-164 -110 -390 -110q-247 0 -388.5 150t-141.5 390zM238 522h775q6 44 6 82q0 358 -378 358q-189 0 -294.5 -115.5 t-108.5 -301.5v-23zM420 1418l62 73l326 -273l-62 -74z" />
<glyph unicode="&#xe9;" horiz-adv-x="1230" d="M121 515q0 154 58 274t177 192t283 72q235 0 362.5 -120t127.5 -350q0 -71 -12 -134h-879q17 -175 126 -278t287 -104q187 -3 340 81l50 -64q-163 -109 -390 -109q-247 0 -388.5 150t-141.5 390zM238 522h775q6 44 6 82q0 358 -378 358q-189 0 -294.5 -115.5 t-108.5 -301.5v-23zM425 1218l326 273l61 -73l-326 -274z" />
<glyph unicode="&#xea;" horiz-adv-x="1230" d="M121 515q0 154 58 274t177 192t283 72q235 0 362.5 -120t127.5 -350q0 -71 -12 -134h-879q17 -175 126 -278t287 -104q187 -3 340 81l50 -64q-163 -109 -390 -109q-247 0 -388.5 150t-141.5 390zM238 522h775q6 44 6 82q0 358 -378 358q-189 0 -294.5 -115.5 t-108.5 -301.5v-23zM301 1198l312 314l311 -314l-63 -63l-248 253l-249 -253z" />
<glyph unicode="&#xeb;" horiz-adv-x="1230" d="M121 515q0 154 58 274t177 192t283 72q235 0 362.5 -120t127.5 -350q0 -71 -12 -134h-879q17 -175 126 -278t287 -104q187 -3 340 81l51 -63q-164 -110 -391 -110q-247 0 -388.5 150t-141.5 390zM238 522h775q6 44 6 82q0 358 -377 358q-189 0 -295 -115.5t-109 -301.5 v-23zM347 1300q0 26 18.5 44t49.5 18t49 -18t18 -44t-18 -44.5t-49 -18.5t-49.5 18.5t-18.5 44.5zM743 1300q0 26 18.5 44t49.5 18t49 -18t18 -44t-18 -44.5t-49 -18.5t-49.5 18.5t-18.5 44.5z" />
<glyph unicode="&#xec;" horiz-adv-x="468" d="M51 1418l62 73l326 -273l-62 -74zM185 0v1024h117v-1024h-117z" />
<glyph unicode="&#xed;" horiz-adv-x="468" d="M56 1218l326 273l61 -73l-326 -274zM185 0v1024h117v-1024h-117z" />
<glyph unicode="&#xee;" horiz-adv-x="468" d="M-68 1198l311 314l312 -314l-63 -63l-249 253l-247 -253zM185 0v1024h117v-1024h-117z" />
<glyph unicode="&#xef;" horiz-adv-x="468" d="M-20 1300q0 26 17.5 44t48.5 18t49 -18t18 -44t-18 -44.5t-49 -18.5t-48.5 18.5t-17.5 44.5zM185 0v1024h117v-1024h-117zM374 1300q0 26 18.5 44t49.5 18t49 -18t18 -44t-18 -44.5t-49 -18.5t-49.5 18.5t-18.5 44.5z" />
<glyph unicode="&#xf0;" horiz-adv-x="1228" d="M89 478q0 115 27 201.5t73 140t115.5 87t146 46t173.5 12.5q69 0 120.5 -5t104 -19.5t91.5 -40t74.5 -67.5t62.5 -100l1 96q0 151 -15.5 255.5t-57.5 175.5l-227 -132l-48 77l224 130q-95 125 -313 125q-103 0 -182 -22.5t-154 -76.5l-50 79q87 63 177.5 90.5t208.5 27.5 q290 0 418 -162l148 86l48 -76l-148 -87q51 -96 70 -231t19 -325q0 -101 -5.5 -182t-21.5 -164t-42 -145.5t-68.5 -118t-100 -91t-137.5 -56t-180 -20.5t-178.5 12.5t-150.5 46t-119.5 88t-75.5 142t-28 203.5zM205 476q0 -117 30 -195.5t90 -120.5t135 -59t181 -17 q116 0 198 33.5t131 100t73.5 151.5t32.5 203q-21 76 -51.5 129.5t-66.5 86t-87 50.5t-103.5 24t-126.5 6q-106 0 -180.5 -16.5t-135 -59t-90.5 -121t-30 -195.5z" />
<glyph unicode="&#xf1;" horiz-adv-x="1271" d="M174 0v1024h106l4 -157q114 99 199.5 142t196.5 43q64 0 125.5 -14.5t118 -46t99 -75.5t67.5 -107t25 -137v-672h-118v651q0 97 -51.5 168.5t-128 104t-164.5 32.5q-95 0 -171.5 -40t-189.5 -142v-774h-118zM369 1299q59 129 154 129q52 0 135 -46q87 -46 125 -46 q50 0 80 69l70 -39q-47 -112 -138 -112q-57 0 -142 46q-81 45 -118 45q-56 0 -97 -86z" />
<glyph unicode="&#xf2;" horiz-adv-x="1312" d="M121 512q0 115 36 213.5t102.5 171t169 113.5t228.5 41q250 0 392.5 -148.5t142.5 -390.5q0 -158 -60.5 -278.5t-183 -190.5t-291.5 -70q-126 0 -228.5 41t-169 113.5t-102.5 171t-36 213.5zM238 512q0 -200 112.5 -322t306.5 -122q197 0 307.5 120t110.5 324 q0 205 -112 324.5t-306 119.5t-306.5 -122t-112.5 -322zM464 1418l62 73l326 -273l-62 -74z" />
<glyph unicode="&#xf3;" horiz-adv-x="1312" d="M121 512q0 115 36 213.5t102.5 171t169 113.5t228.5 41q250 0 392.5 -148.5t142.5 -390.5q0 -158 -60.5 -278.5t-183 -190.5t-291.5 -70q-126 0 -228.5 41t-169 113.5t-102.5 171t-36 213.5zM238 512q0 -200 112.5 -322t306.5 -122q197 0 307.5 120t110.5 324 q0 205 -112 324.5t-306 119.5t-306.5 -122t-112.5 -322zM469 1218l326 273l61 -73l-326 -274z" />
<glyph unicode="&#xf4;" horiz-adv-x="1312" d="M121 512q0 115 36 213.5t102.5 171t169 113.5t228.5 41q250 0 392.5 -148.5t142.5 -390.5q0 -158 -60.5 -278.5t-183 -190.5t-291.5 -70q-126 0 -228.5 41t-169 113.5t-102.5 171t-36 213.5zM238 512q0 -200 112.5 -322t306.5 -122q197 0 307.5 120t110.5 324 q0 205 -112 324.5t-306 119.5t-306.5 -122t-112.5 -322zM345 1198l312 314l311 -314l-63 -63l-248 253l-249 -253z" />
<glyph unicode="&#xf5;" horiz-adv-x="1312" d="M121 512q0 115 36 213.5t102.5 171t169 113.5t228.5 41q250 0 392.5 -148.5t142.5 -390.5q0 -158 -60.5 -278.5t-183 -190.5t-291.5 -70q-126 0 -228.5 41t-169 113.5t-102.5 171t-36 213.5zM238 512q0 -200 112.5 -322t306.5 -122q197 0 307.5 120t110.5 324 q0 205 -112 324.5t-306 119.5t-306.5 -122t-112.5 -322zM380 1299q59 129 154 129q52 0 135 -46q87 -46 125 -46q50 0 80 69l69 -39q-47 -112 -138 -112q-56 0 -141 46q-81 45 -119 45q-55 0 -96 -86z" />
<glyph unicode="&#xf6;" horiz-adv-x="1312" d="M121 512q0 115 36 213.5t102.5 171t169 113.5t228.5 41q250 0 393 -148.5t143 -390.5q0 -117 -35.5 -215.5t-102 -170.5t-168.5 -112.5t-230 -40.5q-126 0 -228.5 41t-169 113.5t-102.5 171t-36 213.5zM238 512q0 -200 112.5 -322t306.5 -122q197 0 307.5 120t110.5 324 q0 205 -112 324.5t-306 119.5t-306.5 -122t-112.5 -322zM391 1300q0 26 18.5 44t49.5 18t49 -18t18 -44t-18 -44.5t-49 -18.5t-49.5 18.5t-18.5 44.5zM787 1300q0 26 18.5 44t49.5 18t49 -18t18 -44t-18 -44.5t-49 -18.5t-49.5 18.5t-18.5 44.5z" />
<glyph unicode="&#xf7;" horiz-adv-x="1009" d="M92 645v98h825v-98h-825zM437 362q0 26 18.5 44t49.5 18t49 -18t18 -44t-18 -44t-49 -18t-49.5 18t-18.5 44zM437 1026q0 26 18.5 44t49.5 18t49 -18t18 -44t-18 -43.5t-49 -17.5t-49.5 17.5t-18.5 43.5z" />
<glyph unicode="&#xf8;" horiz-adv-x="1312" d="M121 512q0 115 36 213.5t102.5 171t169 113.5t228.5 41q96 0 174 -22l43 97h104l-58 -131q131 -63 201.5 -189.5t70.5 -293.5q0 -158 -60.5 -278.5t-183 -190.5t-291.5 -70q-93 0 -174 23l-43 -98h-105l58 132q-131 65 -201.5 191.5t-70.5 290.5zM238 512q0 -133 51 -234 t145 -155l357 815q-67 18 -134 18q-194 0 -306.5 -122t-112.5 -322zM522 86q62 -18 135 -18q197 0 307.5 120t110.5 324q0 136 -51 236t-145 154z" />
<glyph unicode="&#xf9;" horiz-adv-x="1253" d="M157 352v672h117v-651q0 -97 51.5 -168.5t128.5 -104t165 -32.5q95 0 171 40t189 142v774h118v-1024h-106l-4 157q-115 -99 -199.5 -142.5t-195.5 -43.5q-64 0 -125.5 15t-118 46t-99 75.5t-67.5 107.5t-25 137zM438 1418l62 73l326 -273l-62 -74z" />
<glyph unicode="&#xfa;" horiz-adv-x="1253" d="M157 352v672h117v-651q0 -97 51.5 -168.5t128.5 -104t165 -32.5q95 0 171 40t189 142v774h118v-1024h-106l-4 157q-115 -99 -199.5 -142.5t-195.5 -43.5q-64 0 -125.5 15t-118 46t-99 75.5t-67.5 107.5t-25 137zM443 1218l326 273l61 -73l-326 -274z" />
<glyph unicode="&#xfb;" horiz-adv-x="1253" d="M157 352v672h117v-651q0 -97 51.5 -168.5t128.5 -104t165 -32.5q95 0 171 40t189 142v774h118v-1024h-106l-4 157q-115 -99 -199.5 -142.5t-195.5 -43.5q-64 0 -125.5 15t-118 46t-99 75.5t-67.5 107.5t-25 137zM319 1198l312 314l311 -314l-63 -63l-248 253l-249 -253z " />
<glyph unicode="&#xfc;" horiz-adv-x="1253" d="M157 352v672h117v-651q0 -97 51.5 -168.5t128.5 -104t165 -32.5q95 0 171 40t189 142v774h118v-1024h-106l-4 157q-115 -99 -199.5 -142.5t-195.5 -43.5q-64 0 -125.5 15t-118 46t-99 75.5t-67.5 107.5t-25 137zM366 1300q0 26 18 44t49 18t49 -18t18 -44t-18 -44.5 t-49 -18.5t-49 18.5t-18 44.5zM761 1300q0 26 18.5 44t49.5 18t49 -18t18 -44t-18 -44.5t-49 -18.5t-49.5 18.5t-18.5 44.5z" />
<glyph unicode="&#xfd;" horiz-adv-x="1118" d="M82 -418q149 0 253 66q96 65 146 188l65 164h-23l-421 1024h120l365 -907l360 907h120l-495 -1225q-127 -307 -490 -307v90zM368 1218l326 273l62 -73l-326 -274z" />
<glyph unicode="&#xfe;" horiz-adv-x="1284" d="M192 -487v1921h118v-555q138 170 369 170q230 0 357 -145t127 -394q0 -254 -117.5 -395.5t-345.5 -141.5q-98 0 -182 36t-208 140v-636h-118zM310 254q122 -112 197.5 -149t166.5 -37q372 0 372 442q0 202 -102 323t-295 121q-219 0 -339 -186v-514z" />
<glyph unicode="&#xff;" horiz-adv-x="1118" d="M82 -418q149 0 253 66q96 65 146 188l65 164h-23l-421 1024h120l365 -907l360 907h120l-495 -1225q-127 -307 -490 -307v90zM291 1300q0 26 18.5 44t49.5 18t49 -18t18 -44t-18 -44.5t-49 -18.5t-49.5 18.5t-18.5 44.5zM687 1300q0 26 18 44t49 18t49.5 -18t18.5 -44 t-18.5 -44.5t-49.5 -18.5t-49 18.5t-18 44.5z" />
<glyph unicode="&#x152;" horiz-adv-x="2473" d="M144 718q0 159 48.5 294.5t138.5 234.5t227 155t305 56q224 0 380 -107t221 -292v375h895v-103h-774v-541h709v-102h-709v-586h774v-102h-895l-1 373q-65 -185 -219.5 -291.5t-380.5 -106.5q-220 0 -384.5 96.5t-249.5 264t-85 382.5zM265 718q0 -289 161 -464t437 -175 q282 0 441 174t159 465q0 287 -160 462t-440 175q-186 0 -322.5 -81t-206 -224t-69.5 -332z" />
<glyph unicode="&#x153;" horiz-adv-x="2185" d="M121 512q0 115 36 213.5t102.5 171t169 113.5t228.5 41q181 0 304.5 -88t170.5 -241q44 153 163 242t299 89q235 0 362 -120t127 -350q0 -71 -12 -134h-878q17 -175 126 -278t287 -104q190 -3 340 81l50 -64q-163 -109 -390 -109q-181 0 -303.5 88.5t-168.5 241.5 q-45 -155 -168 -243.5t-309 -88.5q-126 0 -228.5 41t-169 113.5t-102.5 171t-36 213.5zM238 512q0 -200 112.5 -322t306.5 -122q197 0 307.5 120t110.5 324q0 205 -112 324.5t-306 119.5t-306.5 -122t-112.5 -322zM1193 522h775q5 36 5 82q0 358 -377 358 q-189 0 -294.5 -115.5t-108.5 -301.5v-23z" />
<glyph unicode="&#x178;" horiz-adv-x="1413" d="M87 1434h141l479 -750l478 750h141l-558 -863v-571h-122v572zM441 1709q0 26 18 44t49 18t49.5 -18t18.5 -44t-18.5 -44t-49.5 -18t-49 18t-18 44zM836 1709q0 26 18.5 44t49.5 18t49 -18t18 -44t-18 -44t-49 -18t-49.5 18t-18.5 44z" />
<glyph unicode="&#x2c6;" horiz-adv-x="806" d="M92 1198l312 314l311 -314l-63 -63l-248 253l-249 -253z" />
<glyph unicode="&#x2dc;" horiz-adv-x="747" d="M92 1299q59 129 154 129q52 0 135 -46q87 -46 125 -46q50 0 80 69l69 -39q-47 -112 -137 -112q-57 0 -142 46q-81 45 -118 45q-56 0 -97 -86z" />
<glyph unicode="&#x2000;" horiz-adv-x="984" />
<glyph unicode="&#x2001;" horiz-adv-x="1969" />
<glyph unicode="&#x2002;" horiz-adv-x="984" />
<glyph unicode="&#x2003;" horiz-adv-x="1969" />
<glyph unicode="&#x2004;" horiz-adv-x="656" />
<glyph unicode="&#x2005;" horiz-adv-x="492" />
<glyph unicode="&#x2006;" horiz-adv-x="328" />
<glyph unicode="&#x2007;" horiz-adv-x="328" />
<glyph unicode="&#x2008;" horiz-adv-x="246" />
<glyph unicode="&#x2009;" horiz-adv-x="393" />
<glyph unicode="&#x200a;" horiz-adv-x="109" />
<glyph unicode="&#x2010;" horiz-adv-x="944" d="M92 660v99h759v-99h-759z" />
<glyph unicode="&#x2011;" horiz-adv-x="944" d="M92 660v99h759v-99h-759z" />
<glyph unicode="&#x2012;" horiz-adv-x="944" d="M92 660v99h759v-99h-759z" />
<glyph unicode="&#x2013;" horiz-adv-x="1083" d="M92 660v99h898v-99h-898z" />
<glyph unicode="&#x2014;" horiz-adv-x="1347" d="M92 660v99h1164v-99h-1164z" />
<glyph unicode="&#x2018;" horiz-adv-x="331" d="M92 1444q0 62 22 96t79 34h20l-8 -53h-8q-25 0 -34 -14t-10 -51v-12q6 2 19 2q31 0 49.5 -18t18.5 -44t-18.5 -44t-49.5 -18q-80 0 -80 122z" />
<glyph unicode="&#x2019;" horiz-adv-x="331" d="M92 1512q0 26 18.5 44t49.5 18q79 0 79 -123q0 -62 -21.5 -95.5t-78.5 -33.5h-20l8 53h8q25 0 34 13.5t10 51.5v12q-9 -3 -19 -3q-31 0 -49.5 18.5t-18.5 44.5z" />
<glyph unicode="&#x201a;" horiz-adv-x="331" d="M92 49q0 26 18.5 44t49.5 18q79 0 79 -121q0 -63 -21.5 -97t-78.5 -34h-20l8 53h8q25 0 34 14t10 51v13q-6 -2 -19 -2q-31 0 -49.5 17.5t-18.5 43.5z" />
<glyph unicode="&#x201c;" horiz-adv-x="608" d="M92 1445q0 62 22 95.5t79 33.5h20l-8 -53h-8q-25 0 -34 -13.5t-10 -49.5v-14q6 2 19 2q31 0 49.5 -18t18.5 -44t-18.5 -44t-49.5 -18q-80 0 -80 123zM369 1444q0 62 22 96t79 34h19l-7 -53h-9q-18 0 -27 -8.5t-11.5 -20t-4.5 -38.5q0 -2 -0.5 -3t-0.5 -3v-4q6 2 19 2 q31 0 49.5 -18t18.5 -44t-18.5 -44t-49.5 -18q-79 0 -79 122z" />
<glyph unicode="&#x201d;" horiz-adv-x="608" d="M92 1512q0 26 18.5 44t49.5 18q79 0 79 -123q0 -62 -21.5 -95.5t-78.5 -33.5h-20l8 53h8q25 0 34 14t10 51v12q-9 -3 -19 -3q-31 0 -49.5 18.5t-18.5 44.5zM369 1512q0 26 18 44t49 18q80 0 80 -123q0 -62 -22 -95.5t-79 -33.5h-20l8 53h9q26 0 34 14t9 54v9 q-9 -3 -19 -3q-31 0 -49 18.5t-18 44.5z" />
<glyph unicode="&#x201e;" horiz-adv-x="608" d="M92 49q0 26 18.5 44t49.5 18q79 0 79 -121q0 -63 -21.5 -97t-78.5 -34h-20l8 53h8q25 0 34 14t10 51v13q-6 -2 -19 -2q-31 0 -49.5 17.5t-18.5 43.5zM369 49q0 26 18 44t49 18q80 0 80 -121q0 -63 -22 -97t-79 -34h-20l8 53h9q25 0 33.5 13.5t9.5 51.5v13q-6 -2 -19 -2 q-31 0 -49 17.5t-18 43.5z" />
<glyph unicode="&#x2022;" horiz-adv-x="589" d="M92 608q0 81 58.5 139t145.5 58t145 -57.5t58 -139.5t-58 -140t-145 -58t-145.5 58.5t-58.5 139.5z" />
<glyph unicode="&#x2026;" horiz-adv-x="1087" d="M92 53q0 26 18.5 44t49.5 18t49 -18t18 -44t-18 -44.5t-49 -18.5t-49.5 18.5t-18.5 44.5zM477 53q0 26 18 44t49 18t49.5 -18t18.5 -44t-18.5 -44.5t-49.5 -18.5t-49 18.5t-18 44.5zM861 53q0 26 18.5 44t49.5 18t49 -18t18 -44t-18 -44.5t-49 -18.5t-49.5 18.5 t-18.5 44.5z" />
<glyph unicode="&#x202f;" horiz-adv-x="393" />
<glyph unicode="&#x2039;" horiz-adv-x="704" d="M92 600l443 480l77 -61l-383 -419l383 -418l-77 -61z" />
<glyph unicode="&#x203a;" horiz-adv-x="704" d="M92 182l383 418l-383 419l77 61l443 -480l-443 -479z" />
<glyph unicode="&#x205f;" horiz-adv-x="492" />
<glyph unicode="&#x20ac;" horiz-adv-x="1331" d="M92 511v91h122q-3 64 -2 115v63h-120v91h129q9 108 31.5 193.5t67 161.5t110 126t163.5 78.5t224 28.5q275 0 421 -135l-70 -74q-131 108 -351 108q-124 0 -212.5 -34t-140.5 -100.5t-78.5 -151.5t-35.5 -201h691v-91h-705v-63q0 -41 4 -115h621v-91h-606 q12 -103 41 -179.5t82 -135.5t137.5 -89t201.5 -30q220 0 351 108l70 -74q-147 -136 -421 -136q-149 0 -258 38.5t-176.5 112t-104.5 167t-52 218.5h-134z" />
<glyph unicode="&#x2122;" horiz-adv-x="1798" d="M92 1356v78h676v-78h-292v-728h-92v728h-292zM900 628v806h104l299 -687l298 687h105v-806h-92v607l-270 -606h-83l-269 606v-607h-92z" />
<glyph unicode="&#xe000;" horiz-adv-x="1024" d="M0 0v1024h1024v-1024h-1024z" />
<glyph unicode="&#xfb03;" horiz-adv-x="2093" d="M69 933v91h188q0 264 162 394q145 120 381 114v-90q-195 0 -308 -101q-61 -53 -89 -129t-28 -188h682q0 265 161 394q145 120 381 114v-90q-194 0 -307 -101q-61 -53 -89.5 -129t-28.5 -188h741v-1024h-118v933h-623v-933h-117v933h-682v-933h-118v933h-188z" />
<glyph unicode="&#xfb04;" horiz-adv-x="2299" d="M69 933v91h188q0 264 162 394q145 120 380 114v-90q-194 0 -307 -101q-61 -53 -89 -129t-28 -188h682q0 265 161 394q143 120 374 115h317v-1103q0 -350 313 -350v-90q-213 -6 -322 108.5t-109 331.5v1012h-192q-194 0 -307 -101q-61 -53 -89.5 -129t-28.5 -188h339v-91 h-339v-933h-117v933h-682v-933h-118v933h-188z" />
</font>
</defs>
</svg>
